<svg xmlns="http://www.w3.org/2000/svg" width="201.203" height="151.502" viewBox="0 0 201.203 151.502">
  <path id="Path_1" data-name="Path 1" d="M1159.368,240.546a1.678,1.678,0,0,1-1.116-.279,4.549,4.549,0,0,1-3.068-3.626l-6.415-71.959-9.2,5.02a4.3,4.3,0,0,1-4.462-.279l-64.429-45.183a4.627,4.627,0,0,1-1.673-4.463,3.628,3.628,0,0,1,3.626-3.068L1265.354,89.1a4.15,4.15,0,0,1,4.184,1.952,4.222,4.222,0,0,1-.279,4.742L1162.715,238.872A3.651,3.651,0,0,1,1159.368,240.546Zm-2.789-81.721,5.857,66.381,88.136-118.538ZM1084.341,123.4l52.156,36.816,107.66-59.687Z" transform="translate(-1068.931 -89.044)" fill="#fcee21"/>
</svg>
